<?xml version="1.0" standalone="no"?>
<!DOCTYPE svg PUBLIC "-//W3C//DTD SVG 20010904//EN"
 "http://www.w3.org/TR/2001/REC-SVG-20010904/DTD/svg10.dtd">
<svg version="1.0" xmlns="http://www.w3.org/2000/svg"
 width="8334.000000pt" height="8334.000000pt" viewBox="0 0 8334.000000 8334.000000"
 preserveAspectRatio="xMidYMid meet">

<g transform="translate(0.000000,8334.000000) scale(0.100000,-0.100000)"
fill="#000000" stroke="none">
<path d="M27655 62000 c-1438 -70 -3010 -387 -4937 -996 -256 -81 -494 -164
-683 -239 -1124 -446 -2222 -1135 -3305 -2074 -537 -466 -1205 -1136 -1726
-1731 -716 -819 -1481 -1837 -2152 -2865 -499 -766 -1072 -1732 -1482 -2500
-23 -44 -55 -102 -70 -130 -16 -27 -101 -189 -190 -360 -1572 -3009 -2936
-6590 -3725 -9780 -331 -1337 -523 -2428 -589 -3355 -9 -118 -18 -246 -21
-283 -21 -284 -28 -1206 -12 -1582 28 -695 112 -1419 243 -2095 562 -2911
2008 -5209 4169 -6625 524 -344 1112 -650 1700 -885 747 -299 1527 -514 2389
-660 l229 -38 21 26 c325 417 891 1011 1376 1443 1174 1047 2642 1970 4340
2726 2562 1143 5630 1890 8875 2162 400 34 789 60 1130 76 66 3 154 8 195 10
41 2 163 7 270 10 107 3 229 8 270 11 41 3 390 6 775 8 813 3 1432 -11 2090
-49 226 -13 265 -16 340 -21 44 -2 105 -7 135 -9 30 -3 118 -9 195 -15 204
-15 253 -19 420 -34 83 -8 153 -12 156 -10 3 1 144 218 313 481 169 263 357
555 417 648 61 94 141 217 178 275 37 58 135 211 218 340 83 129 459 716 837
1303 377 588 686 1072 686 1075 -1 4 -166 125 -368 269 -202 144 -581 415
-842 603 -261 187 -649 465 -862 618 -213 152 -386 280 -385 283 3 7 173 162
1822 1659 748 679 1608 1461 1912 1737 l552 502 -67 25 c-37 14 -521 194
-1076 400 -555 207 -1011 378 -1014 381 -6 6 -75 -183 1018 2810 518 1419 995
2729 1062 2910 66 182 142 389 168 460 68 183 395 1077 545 1492 70 191 254
699 410 1128 157 429 286 786 287 794 2 11 -15 15 -82 17 -1192 37 -2215 240
-3350 663 -802 300 -1782 785 -2350 1164 -462 309 -819 605 -1266 1051 -605
605 -1038 1147 -1874 2346 -1035 1485 -1377 1923 -1939 2493 -673 681 -1346
1141 -2141 1462 -615 248 -1377 416 -2090 460 -58 4 -121 9 -140 11 -62 9
-850 12 -1005 4z m330 -3384 c1107 -85 1949 -293 2730 -675 831 -407 1508
-966 2264 -1871 262 -314 448 -555 1127 -1465 764 -1024 1184 -1525 1784
-2126 334 -335 503 -492 815 -756 1682 -1421 3268 -2257 4906 -2586 96 -20
195 -39 222 -42 26 -4 47 -11 47 -15 0 -7 -102 -241 -325 -745 -53 -121 -157
-355 -230 -520 -73 -165 -165 -374 -205 -465 -40 -91 -127 -286 -193 -435 -65
-148 -220 -499 -344 -780 -124 -280 -286 -647 -360 -815 -410 -925 -787 -1780
-1120 -2537 -64 -145 -119 -263 -122 -263 -5 0 -141 425 -535 1682 -39 125
-74 224 -78 220 -5 -6 -136 -336 -800 -2011 -59 -151 -110 -276 -112 -279 -3
-2 -20 1 -38 7 -28 9 -339 61 -1098 181 -665 105 -1434 230 -1437 234 -2 2 19
142 46 312 28 170 102 635 166 1034 63 399 129 808 146 910 40 235 48 425 25
560 -45 257 -164 487 -346 670 -104 103 -206 175 -343 240 -156 75 -232 92
-842 186 -119 18 -301 18 -411 -1 -423 -74 -785 -372 -938 -772 -41 -107 -56
-176 -100 -453 -181 -1141 -347 -2170 -353 -2191 l-8 -25 -265 42 c-919 147
-1186 189 -1930 309 -410 66 -570 64 -796 -10 -55 -18 -130 -48 -165 -65 -320
-160 -571 -469 -648 -800 -41 -176 -113 -653 -118 -785 -13 -338 112 -658 351
-899 104 -106 196 -173 321 -235 187 -94 145 -85 1220 -256 330 -53 681 -109
780 -125 99 -16 313 -50 475 -76 162 -26 298 -50 302 -53 3 -3 0 -44 -8 -91
-17 -107 -74 -463 -163 -1020 -38 -239 -104 -649 -146 -910 -83 -512 -92 -615
-65 -785 55 -360 292 -700 613 -882 165 -93 249 -116 662 -185 454 -75 618
-73 863 13 358 126 639 408 761 764 35 103 41 138 157 865 47 294 107 677 135
850 28 173 72 448 97 610 l48 295 34 -1 c19 -1 163 -22 320 -47 297 -48 1671
-268 1940 -311 85 -13 175 -27 199 -30 24 -3 46 -7 48 -9 2 -2 -59 -82 -135
-178 -76 -96 -297 -373 -491 -617 -194 -244 -354 -449 -357 -456 -2 -7 476
-440 1085 -981 599 -534 1088 -971 1087 -972 -1 -1 -105 27 -231 61 -272 75
-1382 382 -1575 436 l-135 38 -15 -21 c-8 -11 -235 -444 -505 -961 l-490 -941
-65 2 c-36 0 -173 8 -305 17 -1902 127 -3811 125 -5575 -4 -3841 -283 -7098
-1161 -9535 -2570 -435 -252 -896 -556 -1270 -839 -454 -342 -968 -802 -1300
-1160 l-150 -162 -60 6 c-580 58 -1414 279 -2080 550 -1246 508 -2248 1257
-2968 2220 -356 476 -672 1072 -878 1658 -224 634 -354 1301 -411 2102 -16
229 -16 961 0 1200 75 1105 241 2024 597 3300 959 3441 1752 5767 2670 7840
1892 4271 4243 7039 7255 8544 1404 701 2937 1122 4630 1270 124 11 277 23
340 26 63 4 126 8 138 10 13 2 119 7 235 11 117 4 214 8 217 11 12 11 1121 -6
1315 -21z"/>
<path d="M26601 56200 c-294 -30 -548 -84 -821 -172 -1003 -325 -1844 -1074
-2273 -2023 -427 -945 -456 -2007 -80 -2960 497 -1262 1632 -2162 2973 -2359
316 -47 684 -52 990 -15 1098 133 2069 723 2689 1634 339 498 539 1029 626
1665 22 157 31 588 16 760 -70 809 -373 1540 -890 2150 -121 142 -376 391
-516 503 -544 436 -1177 703 -1905 803 -143 19 -667 28 -809 14z"/>
<path d="M23470 55198 c-803 -703 -1343 -1576 -1601 -2588 -233 -916 -204
-1898 82 -2788 317 -982 916 -1837 1734 -2474 433 -336 967 -619 1503 -797
360 -118 820 -212 1157 -236 50 -4 104 -8 120 -11 42 -6 579 -5 645 1 224 20
301 29 420 46 1500 222 2842 1130 3615 2444 347 590 571 1250 659 1945 42 324
47 865 11 1165 -73 619 -228 1148 -495 1690 -95 193 -252 475 -265 475 -3 0 7
-26 22 -57 169 -372 269 -657 343 -983 295 -1305 16 -2678 -765 -3760 -142
-197 -276 -352 -484 -561 -298 -297 -558 -502 -905 -711 -155 -94 -480 -256
-656 -326 -364 -146 -781 -252 -1180 -302 -340 -42 -778 -40 -1130 5 -1468
188 -2738 1039 -3475 2330 -427 746 -643 1653 -596 2503 36 676 184 1252 471
1837 212 433 444 768 799 1154 46 50 82 91 80 91 -2 0 -51 -42 -109 -92z"/>
<path d="M38525 48249 c-532 -28 -1005 -384 -1184 -892 -55 -157 -74 -273 -75
-452 0 -113 5 -185 17 -247 95 -476 423 -863 867 -1022 485 -175 1025 -61
1392 292 195 188 311 386 381 652 29 110 30 125 31 320 1 191 -1 212 -26 312
-100 392 -344 708 -688 887 -226 117 -447 164 -715 150z"/>
<path d="M59258 59314 c-2 -2 -71 -4 -153 -5 -366 -4 -829 -64 -1210 -156
-903 -217 -1719 -622 -2640 -1312 -427 -320 -787 -624 -1690 -1426 -762 -677
-1163 -1012 -1610 -1344 -1045 -778 -1965 -1234 -3065 -1520 -787 -205 -1634
-350 -2372 -407 -79 -6 -87 -8 -92 -29 -7 -26 -347 -1261 -427 -1550 -28 -99
-63 -227 -79 -285 -16 -58 -72 -262 -125 -455 -53 -192 -144 -523 -202 -735
-177 -650 -533 -1948 -1008 -3675 -439 -1597 -837 -3048 -854 -3111 l-8 -30
1096 -309 c603 -169 1102 -311 1108 -314 8 -4 -77 -103 -235 -271 -2525 -2700
-3702 -3962 -3698 -3969 3 -4 588 -358 1300 -786 l1296 -778 -42 -76 c-79
-145 -97 -178 -348 -651 -247 -464 -841 -1576 -905 -1695 -18 -33 -73 -138
-124 -232 -217 -411 -276 -522 -311 -588 -94 -174 -434 -813 -500 -938 -39
-76 -71 -140 -69 -141 2 -2 135 -6 294 -10 160 -3 353 -8 430 -11 267 -10 587
-24 690 -30 39 -2 115 -7 170 -10 55 -3 132 -8 170 -10 39 -3 140 -10 225 -15
148 -10 579 -45 685 -55 733 -72 1309 -142 1885 -231 2583 -397 4906 -1072
7100 -2063 311 -141 1094 -532 1390 -694 1486 -814 2687 -1665 3860 -2732 219
-199 718 -693 940 -930 984 -1052 1813 -2200 2485 -3440 112 -207 314 -603
399 -783 44 -93 63 -123 79 -126 29 -6 135 -14 277 -22 63 -3 129 -8 145 -10
53 -9 1085 -12 1215 -4 69 4 175 11 235 14 123 8 344 29 540 52 3538 416 6300
2610 7860 6244 616 1436 1033 3149 1150 4725 24 325 33 471 40 655 3 74 8 178
10 230 21 445 23 1371 6 2035 -7 237 -14 453 -16 480 -2 28 -6 127 -10 220 -3
94 -10 238 -15 320 -5 83 -12 204 -15 270 -3 66 -8 140 -10 165 -3 25 -7 95
-10 155 -3 61 -8 130 -10 155 -3 25 -7 79 -10 120 -263 3664 -999 7468 -2044
10560 -1387 4108 -3276 7038 -5596 8682 -383 271 -1257 791 -1930 1148 -55 29
-129 69 -165 88 -138 75 -746 375 -955 472 -1495 692 -2816 1074 -3990 1154
-217 15 -531 27 -537 20z m232 -3455 c776 -45 1612 -199 2570 -476 3198 -923
5603 -2676 7302 -5323 338 -527 705 -1198 971 -1776 1213 -2630 1915 -5871
2231 -10309 73 -1021 114 -1805 172 -3275 19 -490 22 -1316 5 -1650 -85 -1698
-394 -3037 -966 -4195 -878 -1775 -2340 -2938 -4310 -3429 -726 -181 -1551
-266 -2296 -237 -248 10 -554 33 -620 46 -20 5 -39 30 -94 128 -266 473 -630
991 -1024 1457 -347 410 -851 920 -1306 1322 -844 744 -1957 1515 -3150 2180
-3353 1870 -7834 3261 -12720 3948 -305 43 -890 120 -912 120 -7 0 -13 3 -13
8 0 4 115 228 255 496 140 269 253 492 250 494 -3 3 -197 20 -433 38 -235 19
-434 35 -443 36 -12 2 86 175 378 667 315 532 391 667 381 677 -7 7 -479 323
-1048 703 -569 381 -1036 695 -1038 700 -1 4 278 228 622 497 343 269 619 490
612 492 -6 1 -467 -89 -1023 -201 -557 -112 -1013 -203 -1013 -202 0 2 80 70
178 152 97 81 445 373 772 648 327 275 1254 1053 2060 1729 2006 1684 1940
1628 1940 1637 0 4 -217 162 -482 350 -266 189 -613 436 -773 549 -159 114
-424 302 -589 419 -164 117 -299 211 -301 209 -1 -2 24 -66 56 -143 149 -358
318 -779 315 -783 -3 -2 -297 70 -655 160 -576 144 -651 165 -651 182 0 11
124 735 276 1610 151 875 318 1839 370 2141 52 303 103 600 114 660 57 326
240 1385 240 1390 0 1 68 5 152 9 836 37 1853 252 2813 593 907 322 1961 822
2725 1291 729 448 1284 864 2460 1842 1006 837 1406 1142 1910 1457 901 563
1759 859 2750 949 246 22 711 28 980 13z"/>
<path d="M60255 54799 c-344 -19 -681 -137 -967 -339 -109 -77 -284 -242 -370
-349 -491 -609 -545 -1475 -134 -2139 298 -480 785 -793 1349 -867 409 -53
826 36 1192 253 172 102 396 302 518 463 191 251 317 559 363 885 24 170 15
432 -21 604 -49 238 -137 453 -261 643 -372 568 -993 883 -1669 846z"/>
<path d="M55240 50600 c-298 -41 -603 -161 -840 -328 -113 -79 -345 -306 -422
-412 -240 -329 -361 -699 -361 -1105 1 -504 181 -943 536 -1304 276 -281 606
-453 1012 -527 116 -22 379 -29 505 -15 554 64 1039 358 1345 816 412 615 417
1426 12 2043 -281 430 -694 706 -1213 813 -113 23 -460 35 -574 19z"/>
<path d="M64360 49904 c-566 -71 -1043 -363 -1353 -826 -291 -436 -382 -1009
-240 -1518 161 -581 584 -1038 1156 -1251 184 -68 353 -99 577 -106 266 -8
472 25 709 114 267 100 482 242 691 460 242 251 401 555 478 913 25 116 26
142 26 365 0 223 -1 249 -26 366 -77 358 -237 661 -483 918 -268 279 -588 455
-975 536 -106 22 -156 27 -325 30 -110 2 -216 1 -235 -1z"/>
<path d="M47335 48180 c-327 -36 -612 -175 -836 -408 -226 -234 -350 -505
-378 -828 -26 -299 55 -609 228 -869 60 -90 214 -251 311 -324 153 -115 380
-211 583 -247 131 -24 343 -22 473 4 556 111 980 540 1080 1092 22 124 23 344
1 465 -102 565 -539 1003 -1097 1099 -115 20 -268 26 -365 16z"/>
<path d="M59465 45709 c-759 -79 -1401 -631 -1595 -1370 -50 -192 -63 -309
-57 -524 9 -318 62 -527 204 -805 141 -276 350 -511 608 -685 318 -214 662
-318 1045 -317 168 0 280 14 438 53 327 80 603 234 846 468 511 495 692 1220
476 1907 -41 128 -152 354 -232 471 -390 567 -1051 873 -1733 802z"/>
<path d="M51190 43903 c-229 -16 -564 -76 -796 -144 -385 -112 -778 -300
-1104 -527 -252 -176 -571 -470 -755 -695 -406 -498 -674 -1065 -794 -1680
-88 -449 -93 -935 -15 -1378 161 -919 647 -1737 1379 -2320 563 -448 1246
-722 1995 -801 150 -15 575 -15 715 0 368 42 703 122 1028 248 151 58 483 227
625 318 834 533 1417 1337 1652 2276 85 339 115 588 113 945 -1 317 -37 611
-109 900 -202 808 -663 1521 -1324 2050 -114 91 -369 263 -498 335 -568 317
-1230 486 -1877 478 -104 -1 -210 -4 -235 -5z"/>
<path d="M47707 42546 c-384 -411 -655 -799 -887 -1271 -289 -589 -444 -1169
-505 -1895 -12 -144 -6 -626 10 -793 103 -1057 494 -1992 1174 -2807 120 -143
429 -455 578 -582 306 -262 646 -488 1013 -673 1411 -711 3066 -724 4485 -36
534 259 956 561 1380 985 773 774 1269 1761 1424 2832 18 124 26 194 47 433 9
108 6 558 -6 696 -73 870 -328 1626 -795 2360 -47 73 -224 325 -229 325 -2 0
28 -55 66 -122 325 -568 528 -1205 593 -1860 18 -182 25 -528 14 -708 -52
-856 -324 -1660 -797 -2354 -290 -427 -663 -817 -1072 -1121 -700 -520 -1493
-822 -2385 -907 -191 -18 -634 -15 -840 6 -598 61 -1153 222 -1671 487 -1273
650 -2190 1868 -2458 3264 -173 906 -73 1861 284 2700 169 398 430 829 678
1123 24 29 42 55 39 58 -2 3 -65 -60 -140 -140z"/>
<path d="M44506 57945 c-3 -16 -47 -284 -96 -595 -50 -311 -99 -619 -110 -685
-11 -66 -40 -246 -64 -400 -25 -154 -68 -424 -96 -600 -29 -176 -69 -428 -90
-560 -142 -886 -233 -1452 -245 -1528 -8 -48 -15 -93 -14 -100 0 -18 959 3603
959 3625 0 13 -208 782 -234 863 -2 6 -6 -3 -10 -20z"/>
<path d="M47465 57500 c-22 -61 -894 -2684 -892 -2686 2 -2 408 402 902 896
l900 900 -452 452 c-305 305 -454 447 -458 438z"/>
<path d="M45660 56388 l0 -223 -1129 -4065 c-621 -2236 -1129 -4066 -1127
-4067 3 -4 3149 8088 3153 8111 3 18 -51 48 -438 241 -243 121 -446 222 -450
223 -5 2 -9 -97 -9 -220z"/>
<path d="M43426 47590 c-3 -14 -30 -178 -60 -365 -79 -493 -269 -1679 -327
-2040 -75 -466 -125 -783 -169 -1055 -22 -135 -67 -413 -100 -619 -33 -206
-59 -378 -58 -383 4 -9 959 3602 958 3622 0 13 -222 822 -234 855 -2 6 -6 -1
-10 -15z"/>
<path d="M42179 40304 c-1014 -982 -1889 -1831 -1944 -1887 -114 -114 -132
-127 289 207 154 121 412 326 575 455 163 129 370 293 461 366 91 72 511 405
935 740 423 336 855 678 959 760 l189 150 173 445 c210 537 215 550 210 550
-2 0 -833 -804 -1847 -1786z"/>
<path d="M40903 34195 c-370 -617 -673 -1125 -673 -1131 0 -5 202 -211 449
-458 403 -403 450 -447 455 -425 11 47 447 3121 444 3128 -2 4 -306 -497 -675
-1114z"/>
<path d="M37509 29670 c-992 -1117 -1805 -2033 -1807 -2038 -1 -4 507 -109
1129 -233 l1130 -226 453 906 453 906 226 1355 c124 745 225 1355 223 1357 -1
2 -814 -911 -1807 -2027z"/>
<path d="M41130 29440 c-495 -742 -900 -1352 -900 -1355 0 -3 407 -5 905 -5
l905 0 0 1355 c0 745 -2 1355 -5 1355 -3 0 -410 -607 -905 -1350z"/>
</g>
</svg>
